<svg xmlns="http://www.w3.org/2000/svg" height="270.65" width="511">
 <path fill="#fbfced" d="m0.0000019308,135.32,0-135.32,255.5,0,255.5,0,0,135.32,0,135.32-255.5,0-255.5,0,0-135.32z"/>
 <path fill="#fcf9d0" d="m0.0000019308,135.32,0-135.32,255.5,0,255.5,0,0,135.32,0,135.32-255.5,0-255.5,0,0-135.32zm218.63,43.45l0.52205-0.8447-0.61626-1.606-0.61627-1.606h-8.4759-8.476v0.8921,0.8921l-2.183,0.57088-2.183,0.57087-1.7952-0.96077-1.7952-0.96076-0.69562,1.1255-0.6956,1.1255,1.3917,0.88142,1.3917,0.88143,11.852-0.0585,11.852-0.0585,0.52205-0.84469zm110.94-11.389c0.34083-2.3546,1.2988-8.706,2.1289-14.114l1.5092-9.8332-0.58632-1.5279-0.58633-1.5279h-2.8433-2.8433l-1.024,3.2821c-0.56319,1.8052-1.5332,7.3881-2.1556,12.407l-1.1316,9.1244,1.1258,2.9611c0.61919,1.6286,1.6142,3.5496,2.2113,4.269l1.0855,1.3079,1.2451-1.0333,1.2451-1.0333,0.61971-4.281zm-147.44-0.57878,1.6761-1.8521,1.4518-11.024,1.4518-11.024-0.69916-0.6519-0.69916-0.6519-2.2063,0.84744-2.2063,0.84744,0.0696,2.8341c0.0383,1.5588-0.39851,5.3336-0.97059,8.3884-0.57209,3.0549-1.0634,7.4857-1.0919,9.8463l-0.0517,4.292h0.79985c0.43992,0,1.5541-0.83344,2.476-1.8521zm2.6764-26.989,0-1.5744-1.0099,0.62413c-0.55544,0.34328-1.0099,1.0518-1.0099,1.5744,0,0.52265,0.45444,0.95028,1.0099,0.95028h1.0099v-1.5744zm130.82-7.1642,1.6388-0.62887-0.49176-1.8805-0.49176-1.8805,1.1678-0.12641c2.5112-0.2718-8.3639-1.9714-16.328-2.5518l-8.4064-0.61261-2.7023,1.2575c-1.4863,0.69162-3.384,1.5952-4.2171,2.0079l-1.5148,0.75043v1.4048,1.4048l3.0296,0.33018,3.0296,0.33018,1.0099,1.0399,1.0099,1.0399,10.814-0.62804c5.9475-0.34542,11.551-0.91103,12.452-1.2569zm-91.93-2.373,2.6639-1.0128-0.3275-1.7006-0.3275-1.7006-3.4923-0.90493-3.4923-0.90494-10.849,0.3362-10.849,0.3362-1.1208,1.1233-1.1208,1.1233,3.3451,2.1418,3.3451,2.1418,9.7806,0.017,9.7806,0.017,2.6639-1.0128zm54.82-15.52,1.9023-3.2241,0.57157-5.538,0.57159-5.538-0.54479-4.8333-0.54478-4.8333-2.1247,0.30473-2.1247,0.30472-0.31484,2.0198c-0.17317,1.1109-0.71382,2.9287-1.2015,4.0395l-0.8866,2.0198-0.44713,9.3021c-0.24593,5.1162-0.23355,9.5157,0.0275,9.7768,0.99809,0.9981,3.2888-0.70357,5.116-3.8006zm52.388,2.7312-0.67326-0.67325,0,1.3465,0,1.3465,0.67326-0.67325,0.67324-0.67326-0.67324-0.67325zm-88.533-2.416,0-1.9602,0.88583,0,0.88583,0-0.45927-4.292-0.45927-4.292,0.97053-6.031,0.97054-6.031-0.49526-1.2906-0.49526-1.2906-1.4068,0-1.4068,0,0,1.5148,0,1.5148-0.8768,0-0.87681,0-1.6479,5.8731-1.6479,5.8731,0,5.5011,0,5.5011,2.2722,1.059c2.8095,1.3094,3.7871,0.88358,3.7871-1.6495zm89.426-1.392c1.6886-2.5771,4.4604-11.874,4.481-15.029l0.012-1.8375-2.2722,0.32271-2.2722,0.32271,0.0321,2.5247,0.0321,2.5247-1.2945,1.3345-1.2945,1.3345-0.0155,3.21-0.0154,3.21-0.92778,1.4666-0.92778,1.4666,0.4979,0.80562c0.89453,1.4474,2.3221,0.85118,3.9648-1.6559zm3.4831-21.39,0-1.5148-1.0099,0.62414c-0.55544,0.34328-1.0099,1.3058-1.0099,2.139v1.5148l1.0099-0.62414c0.55543-0.34328,1.0099-1.3058,1.0099-2.139zm-110.08-9.3385,0-0.87368-2.7772,0.01071c-1.5274,0.0061-3.5341-0.31654-4.4592-0.71646l-1.682-0.72713-2.7846,0.32779-2.7846,0.32778-0.41451,1.2624-0.41451,1.2624h7.6583,7.6583v-0.87368zm-18.683-1.1461c-0.34328-0.55544-1.0518-1.0099-1.5744-1.0099-0.52265,0-0.95028,0.45445-0.95028,1.0099v1.0099h1.5744,1.5744l-0.62414-1.0099zm20.366-1.6831-0.67325-0.67325,0,1.3465,0,1.3465,0.67325-0.67325,0.67325-0.67326-0.67325-0.67326z"/>
 <path fill="#f9e7a1" d="m0.0000019308,135.32,0-135.32,255.5,0,255.5,0,0,135.32,0,135.32-255.5,0-255.5,0,0-135.32zm220.97,44.83l3.0847-0.61694-0.15198-2.0176-0.15198-2.0176-2.0528-0.78049c-2.3051-0.87639-12.106-1.4057-21.233-1.1466l-6.0593,0.17198-2.5247,2.0099-2.5247,2.0099,1.9603,1.5022,1.9603,1.5022h12.304c6.7674,0,13.692-0.27761,15.389-0.61693zm108.06-7.2096,1.964-2.7772,1.2056-7.2026,1.2056-7.2026,0.0794-7.6608,0.0794-7.6608-1.262-1.5206-1.262-1.5206-2.7113,1.4021-2.7113,1.4021-1.2477,2.3584c-0.68623,1.2971-1.4167,3.2673-1.6234,4.3781-0.82252,4.4223-1.9525,18.326-1.6816,20.693l0.2878,2.515,1.9844,2.7869c2.4779,3.4799,3.2381,3.4812,5.6931,0.0101zm-6.8758,0.25247c0-0.27772-0.22722-0.50494-0.50494-0.50494s-0.50494,0.22722-0.50494,0.50494,0.22722,0.50494,0.50494,0.50494,0.50494-0.22722,0.50494-0.50494zm-138.21-6.2182,1.6409-1.8608,1.4844-6.6168,1.4844-6.6168-0.3347-3.4821-0.3347-3.4821,0.88453,2.5247,0.88454,2.5247,0.10068-2.2126,0.10069-2.2126-0.89541-0.55339c-0.49246-0.30435-1.1999-2.1767-1.5721-4.1607l-0.67673-3.6073-2.618,0.31401-2.618,0.31402-0.75231,1.5148c-1.3683,2.7552-2.9583,11.493-3.6251,19.922l-0.65725,8.3079,1.2592,1.5172,1.2592,1.5172,1.6725-0.89512c0.9199-0.49231,2.411-1.7325,3.3135-2.756zm132.15-32.543,2.5247-0.68973,0.99689-2.2392c0.54828-1.2316,1.376-2.2392,1.8394-2.2392h0.84254l-1.6163-1.6163-1.6163-1.6163-7.7972-1.0017-7.7972-1.0017-8.079,0.48622-8.079,0.48624-2.7917,1.2906-2.7917,1.2906,0.6072,2.1035c0.33396,1.1569,1.527,2.8988,2.6511,3.8708l2.0439,1.7673,13.269-0.10069,13.269-0.10068,2.5247-0.68973zm-94.831-2.1314,3.6325-0.007,2.2639-1.9635,2.2639-1.9635-1.8569-2.4822-1.8569-2.4822-3.5346-0.59261c-1.944-0.32593-7.1702-0.58677-11.614-0.57963l-8.079,0.0129-4.0125,0.93029-4.0125,0.93028-1.2503,1.7098-1.2503,1.7098,0.96453,1.8022,0.96454,1.8022,5.3081,1.0291,5.3081,1.0291,6.5642-0.43899c3.6103-0.24145,8.1989-0.44223,10.197-0.44617zm113.01-16.625,0-2.1662,1.092-1.092,1.092-1.092,0.17033-10.471,0.17035-10.471-2.0198,0-2.0198,0-2.184,4.5445-2.184,4.5445-0.63392,5.5544c-0.34866,3.0549-0.86053,6.7203-1.1375,8.1453l-0.50355,2.591,2.1738,2.7636,2.1738,2.7636,1.905-1.724,1.905-1.724v-2.1662zm-55.744,2.7317,2.0428-1.7673,1.6863-6.9585,1.6863-6.9585-0.69499-5.9881-0.69498-5.988-2.4958-1.1372-2.4958-1.1372-1.6889,1.0521-1.6889,1.0521-1.069,3.2103c-0.58793,1.7657-1.2696,3.0087-1.5148,2.7622-0.24521-0.24646-0.35215,1.9009-0.23763,4.7719s-0.0705,5.9017-0.41112,6.7348l-0.61933,1.5148-0.73175-3.0296-0.73175-3.0296-0.11949,3.2821-0.11948,3.2821h1.0099,1.0099v2.8049,2.8049l1.5721,2.2445,1.5721,2.2445h1.3457c0.74012,0,2.265-0.79528,3.3885-1.7673zm-35.136-1.5148,1.5053-2.2722,0.53298-4.7969,0.53297-4.7969-0.82097,0-0.82098,0,0.9426-1.7673c1.0284-1.9282,1.4372-5.139,1.2536-9.8463l-0.11817-3.0296-3.0706-1.7475-3.0706-1.7475,0.5586,0.90385,0.55861,0.90384-0.80671,0.33872c-0.44371,0.18629-1.8099,1.9829-3.0359,3.9925l-2.2292,3.6538v4.2808,4.2808l-1.7673-0.67282-1.7673-0.67282,1.2624,1.2717,1.2624,1.2717,0.0137,4.09c0.008,2.2495,0.28782,5.1125,0.62273,6.3622l0.60893,2.2722h3.1739,3.1739l1.5053-2.2722zm25.742-3.787c-0.34328-0.55544-0.85137-1.0099-1.1291-1.0099-0.27772,0-0.22409,0.45444,0.11919,1.0099,0.34328,0.55543,0.85136,1.0099,1.1291,1.0099,0.27772,0,0.22408-0.45445-0.11919-1.0099zm-36.861-0.50494c0-0.27772-0.22722-0.50494-0.50494-0.50494-0.27771,0-0.50494,0.22722-0.50494,0.50494,0,0.27771,0.22723,0.50494,0.50494,0.50494,0.27772,0,0.50494-0.22723,0.50494-0.50494zm0-4.0395c0-0.27772-0.22722-0.50494-0.50494-0.50494-0.27771,0-0.50494,0.22722-0.50494,0.50494s0.22723,0.50494,0.50494,0.50494c0.27772,0,0.50494-0.22722,0.50494-0.50494zm92.909-4.0395c0-0.27772-0.22722-0.50494-0.50494-0.50494s-0.50494,0.22722-0.50494,0.50494c0,0.27771,0.22722,0.50494,0.50494,0.50494s0.50494-0.22723,0.50494-0.50494zm-54.87-3.198-0.67325-0.67324,0,1.3465,0,1.3465,0.67325-0.67325,0.67325-0.67326-0.67325-0.67326zm-22.281-9.152-0.61014-0.61013,0.0797,1.9356,0.0797,1.9356,0.53041-1.3255,0.53041-1.3255-0.61013-0.61014zm-20.317-7.5521,4.559-1.2193,0-0.7283c0-0.40056-0.71412-1.4424-1.587-2.3152l-1.587-1.587h-12.933-12.933l-1.0758,1.2962-1.0758,1.2962,0.78573,1.2713,0.78572,1.2713,2.9436,0.88023,2.9436,0.88025,7.3072,0.08675,7.3072,0.08675,4.559-1.2193z"/>
 <path fill="#f6d667" d="m0.0000019308,135.32,0-135.32,255.5,0,255.5,0,0,135.32,0,135.32-255.5,0-255.5,0,0-135.32zm223.69,46.87l2.4549-1.6085-0.12767-3.3962-0.12767-3.3962-2.8765-0.6318-2.8765-0.63178,0.57335-0.9277,0.57335-0.92771h-14.787-14.787l0.41815,1.2544,0.41815,1.2545-2.0112,1.0178-2.0112,1.0178-0.27054,1.8852-0.27054,1.8852,2.4068,2.4068,2.4068,2.4068h14.22,14.22l2.4549-1.6085zm106.18-7.373,1.5136-2.1609,0.91119,0.56314,0.91117,0.56314,0.47573-2.3135c0.26166-1.2724,0.95906-7.3124,1.5498-13.422l1.074-11.109-0.91534-3.8157c-0.50344-2.0986-1.4124-4.4146-2.0199-5.1466l-1.1046-1.3309-3.7516,0.22777-3.7516,0.22777-0.37726,1.1318-0.37727,1.1318h-1.4306-1.4307l-0.008,1.2624c-0.008,1.2635-2.5891,21.274-3.6102,27.992l-0.5423,3.5673,2.6056,2.7551,2.6057,2.7551,3.0796-0.35857,3.0796-0.35856,1.5136-2.161zm-100.62,1.4074c0-0.27772-0.22722-0.50495-0.50494-0.50495s-0.50494,0.22723-0.50494,0.50495c0,0.27771,0.22722,0.50494,0.50494,0.50494s0.50494-0.22723,0.50494-0.50494zm-40.395-3.0296c0-0.27772-0.22722-0.50494-0.50494-0.50494-0.27771,0-0.50494,0.22722-0.50494,0.50494s0.22723,0.50494,0.50494,0.50494c0.27772,0,0.50494-0.22722,0.50494-0.50494zm-15.485-2.1881-0.67326-0.67325,0,1.3465,0,1.3465,0.67326-0.67324,0.67325-0.67326-0.67325-0.67326zm10.474-1.599,2.439-2.2722,0.50568,0.50494,0.50568,0.50494,1.2232-7.0692,1.2232-7.0692,0.0621-6.7692,0.0621-6.7692-1.1305-2.4811-1.1305-2.4811-3.5769,0.44365-3.5769,0.44365-1.4145,1.7375-1.4145,1.7375,0.64614-4.0395,0.64613-4.0395-0.96656,1.0099-0.96656,1.0099-2.1427,16.663c-1.1785,9.1647-2.1422,17.031-2.1417,17.48l0.00099,0.817,0.87491-0.54072,0.87492-0.54073,1.8063,1.996,1.8063,1.996h1.6728,1.6728l2.439-2.2722zm132.97-33.314c3.7507-1.6606,5.1264-3.0638,5.8568-5.9739l0.60715-2.4191-2.5847-2.2474-2.5847-2.2474h-16.247-16.247l-2.8622,2.0381-2.8622,2.0381,0.28432,2.6668,0.28433,2.6668,2.2755,2.3643,2.2755,2.3643h14.49,14.49l2.8247-1.2506zm-36.056-1.1661c0-0.2183-0.70527-0.66754-1.5673-0.99832l-1.5673-0.60142,0.617,0.99831c0.59306,0.9596,2.5176,1.4193,2.5176,0.60143zm-51.601-2.0106,1.1599-1.3976,0.14065-3.7415,0.14066-3.7415-1.4294-0.90476-1.4294-0.90476,1.0099-0.1316c0.55543-0.0724-0.80791-0.5076-3.0296-0.96715l-4.0395-0.83554-10.21-0.0582c-5.6157-0.032-12.314,0.2301-14.884,0.58247l-4.6742,0.64067-3.3598,3.1464c-1.8479,1.7305-2.6004,2.5674-1.6721,1.8597l1.6877-1.2867,1.5694,0.60225,1.5694,0.60225-0.87407,3.0477-0.87407,3.0477,1.3966-0.53593,1.3966-0.53592,1.2074,1.4548,1.2074,1.4548h16.416,16.416l1.1599-1.3976zm45.542-3.1469c0-0.27772-0.22722-0.50494-0.50494-0.50494s-0.50494,0.22722-0.50494,0.50494,0.22722,0.50494,0.50494,0.50494,0.50494-0.22722,0.50494-0.50494zm-6.0593-7.0692c0-0.27772-0.22722-0.50494-0.50494-0.50494-0.27771,0-0.50494,0.22722-0.50494,0.50494s0.22723,0.50494,0.50494,0.50494c0.27772,0,0.50494-0.22722,0.50494-0.50494zm-25.723-2.549,1.1665-0.9681,0.56839,0.56839,0.56839,0.56839,0.57055-2.8494c0.88248-4.4071,3.7538-27.847,3.4374-28.061-0.15463-0.10451-2.3052-1.1176-4.779-2.2513l-4.4979-2.0613-1.3733,1.3733-1.3733,1.3733,0.62893,1.0176,0.62893,1.0176h-1.5961-1.5961l-0.98428,2.2722c-0.54136,1.2497-1.6488,7.4946-2.461,13.877l-1.4767,11.605,0.96783,0.96783,0.96783,0.96783v-1.2715-1.2714l1.0099,0.62413,1.0099,0.62414v1.884,1.884l3.7234-0.46182c2.0478-0.25399,4.2483-0.89745,4.8898-1.4299zm36.237,0.63149,3.3807-1.4125,1.1048-6.414c0.60764-3.5277,1.4057-9.0198,1.7734-12.205l0.66862-5.7906-1.3995-1.7249-1.3995-1.7249,1.2624,0.7584,1.2624,0.75839v-0.87646c0-1.0829-1.7949-3.2241-4.8404-5.7744l-2.3157-1.9391,0.60701,1.5818,0.607,1.5818-2.4649-0.4712-2.4649-0.4712-0.72026,1.1654-0.72027,1.1654-1.3858-1.8277-1.3857-1.8277-0.0636,2.0198c-0.0349,1.1109-0.7216,7.4731-1.5258,14.138-0.8042,6.6652-1.419,13.936-1.3662,16.158l0.096,4.0395,0.46184-1.7673,0.46184-1.7673h0.93583c0.51472,0,0.93584,0.46909,0.93584,1.0424v1.0424l2.2722,0.91333c1.2497,0.50233,2.4004,0.94213,2.5571,0.97733,0.15669,0.0353,1.8062-0.57162,3.6656-1.3485zm54.84-0.58741,1.7124-1.9999,1.7699-7.3415,1.7699-7.3415,0.0103-5.5543,0.0103-5.5543-1.2302-1.6035c-0.67663-0.88191-1.9119-1.843-2.7451-2.1358l-1.5148-0.53231-1.7673,0.90894-1.7673,0.90895v1.3556c0,0.7456-0.68167,1.9214-1.5148,2.6128l-1.5148,1.2572v-1.2009c0-0.6605,1.2096-2.8748,2.688-4.9206l2.688-3.7197-3.318,3.3613-3.318,3.3613-1.4884,10.151-1.4884,10.152,0.95315,0.62558c0.52423,0.34406,1.251,1.8435,1.6151,3.3321,0.773,3.1606,3.2161,5.8774,5.2854,5.8774h1.4526l1.7124-1.9999zm-11.162-3.3019-0.50937-1.2624,0,2.5247,0,2.5247,0.50937-1.2624,0.50938-1.2624-0.50938-1.2624zm-121.87-28.525c0-0.27772-0.22722-0.50494-0.50494-0.50494s-0.50494,0.22722-0.50494,0.50494,0.22722,0.50494,0.50494,0.50494,0.50494-0.22722,0.50494-0.50494zm24.159-1.0117,4.4663-0.39279,2.5773-2.5773,2.5773-2.5773-2.2749-2.2748-2.2749-2.2748-13.107-0.08998-13.107-0.08998-2.266,1.1233-2.266,1.1233-0.34147,3.0062-0.34146,3.0062,0.72197-0.71714,0.72197-0.71714,2.9016,1.5005,2.9016,1.5005,0,1.0898,0,1.0898,7.3216-0.66779c4.0269-0.36729,9.3315-0.84456,11.788-1.0606zm-26.179-1.0081c0-0.27772-0.22723-0.50494-0.50494-0.50494-0.27772,0-0.50494,0.22722-0.50494,0.50494s0.22722,0.50494,0.50494,0.50494c0.27771,0,0.50494-0.22722,0.50494-0.50494zm73.721-2.0198c0-0.27772-0.22722-0.50494-0.50494-0.50494s-0.50494,0.22722-0.50494,0.50494,0.22722,0.50494,0.50494,0.50494,0.50494-0.22722,0.50494-0.50494zm-78.771-3.0296c0-0.27772-0.22722-0.50494-0.50494-0.50494s-0.50494,0.22722-0.50494,0.50494,0.22722,0.50494,0.50494,0.50494,0.50494-0.22722,0.50494-0.50494z"/>
 <path fill="#dcaf5d" d="m0.0000019308,135.32,0-135.32,255.5,0,255.5,0,0,135.32,0,135.32-255.5,0-255.5,0,0-135.32zm228.17,46.78l1.9796-1.695-0.51281-0.82974-0.51281-0.82974h1.2744,1.2744l-3.9445-4.0395-3.9445-4.0395h-17.082-17.082l-4.1732,4.2212-4.1732,4.2211,2.3318,0.5758c1.2825,0.31668,2.305,0.91662,2.2722,1.3332s-0.0596,1.2119-0.0596,1.7673v1.0099h20.186,20.186l1.9796-1.695zm-44.708-0.99805-0.67325-0.67325,0,1.3465,0,1.3465,0.67325-0.67325,0.67325-0.67326-0.67325-0.67325zm143.74-0.84157-1.2572-1.5148,1.891-0.0321c1.04-0.0177,2.6666-0.62147,3.6146-1.3418l1.7237-1.3097,1.5552-13.554c0.85533-7.4547,1.6702-16.374,1.8109-19.822l0.25575-6.2678-2.0198-1.5304-2.0198-1.5304-1.3148,0.46494-1.3148,0.46494,0.617-0.99831,0.61699-0.99832h-0.98298c-0.54064,0-2.8331,1.7042-5.0943,3.7871l-4.1113,3.7871-2.0808,15.907-2.0808,15.907,1.7154,2.2741c1.4581,1.933,8.1928,7.5079,9.3571,7.7456,0.20687,0.0422-0.18961-0.60487-0.88106-1.438zm-151.48-3.0296c0-0.27772-0.22723-0.50494-0.50495-0.50494-0.27771,0-0.50494,0.22722-0.50494,0.50494,0,0.27771,0.22723,0.50494,0.50494,0.50494,0.27772,0,0.50495-0.22723,0.50495-0.50494zm8.7201-5.7239,3.1658-3.365,1.0921-8.079c0.60066-4.4435,1.3764-11.26,1.724-15.148l0.63189-7.0692-2.87-2.6637-2.87-2.6637-2.5247-0.68454-2.5247-0.68455,1.5148,1.0606,1.5148,1.0606-1.8269,0.0154-1.8269,0.0155,0.72058,1.1659,0.72058,1.1659-1.1824-0.73076-1.1824-0.73076,0.66197-1.0711,0.66199-1.0711-1.4029,0.46322-1.4029,0.46323-2.2058,16.078c-1.2132,8.8431-2.183,18.123-2.1551,20.623l0.0507,4.5445,0.47982-1.8606,0.47981-1.8606,1.4919,2.13,1.4919,2.13,0.92922-0.57429,0.92921-0.57428-0.64649,1.6848-0.64651,1.6848,1.9204-1.0445c1.0562-0.57447,3.345-2.5587,5.0862-4.4095zm-0.64105-37.701c0-0.27772,0.22722-0.50494,0.50494-0.50494,0.27771,0,0.50494,0.22722,0.50494,0.50494,0,0.27771-0.22723,0.50494-0.50494,0.50494-0.27772,0-0.50494-0.22723-0.50494-0.50494zm-8.079,40.841,0-1.0695-1.0099,0.62413c-0.55543,0.34328-1.0099,0.82455-1.0099,1.0695,0,0.24493,0.45445,0.44533,1.0099,0.44533h1.0099v-1.0695zm145.51-39.036,2.928-1.7296-0.11461-1.0476c-0.063-0.57616-0.0608-1.8697,0.005-2.8745l0.11965-1.8269,1.2624,0.7162c0.6943,0.39391-0.27547-0.91344-2.155-2.9052l-3.4174-3.6214-18.373,0.18764-18.373,0.18764-4.7012,3.5346-4.7011,3.5346,3.9823,3.7871,3.9823,3.787h18.314,18.314l2.9279-1.7296zm-89.664-4.325,3.2274-3.025-1.2624-0.005-1.2624-0.005,0-1.0695,0-1.0695,1.0099,0.62414c1.5415,0.95272,1.2099,0.0347-0.84229-2.3314l-1.8522-2.1356-2.7581-1.0486-2.758-1.0486h-11.912c-6.5515,0-13.986,0.28429-16.521,0.63176l-4.6092,0.63175-3.6813,3.0345-3.6813,3.0345,3.2983,3.4029,3.2982,3.4029h18.539,18.539l3.2273-3.025zm-44.742-2.4102c0-0.27772,0.45445-0.7858,1.0099-1.1291,0.55544-0.34328,1.0099-0.39692,1.0099-0.1192s-0.45444,0.7858-1.0099,1.1291c-0.55543,0.34328-1.0099,0.39691-1.0099,0.1192zm2.0198-3.1488c0-0.27772,0.22723-0.50495,0.50494-0.50495,0.27772,0,0.50495,0.22723,0.50495,0.50495,0,0.27771-0.22723,0.50494-0.50495,0.50494-0.27771,0-0.50494-0.22723-0.50494-0.50494zm137.34,4.9302c0-0.27772-0.45444-0.22409-1.0099,0.11919-0.55543,0.34328-1.0099,0.85136-1.0099,1.1291,0,0.27772,0.45445,0.22408,1.0099-0.1192,0.55544-0.34328,1.0099-0.85136,1.0099-1.1291zm-52.945-6.0881-0.59578,1.8718,2.8509-1.8718c1.568-1.0295,3.8446-2.5966,5.059-3.4825l2.2081-1.6107,1.5077-10.003c0.82922-5.5016,1.5104-11.89,1.5136-14.198l0.006-4.1947-3.1598-3.569-3.1598-3.5691-3.439,0.44031-3.439,0.44031,1.2098-2.2705,1.2098-2.2705-1.6152,1.3321-1.6152,1.3321-0.58204,2.7074c-1.0083,4.6903-3.5464,27.756-3.5673,32.419l-0.02,4.465,1.6628,1.8374,1.6628,1.8374,1.4493-1.7579,1.4492-1.7579-0.59579,1.8718zm58.026,0.27679,0.0321,0.88107,1.2302-1.5148,1.2302-1.5148,1.4422,0,1.4422,0,0.82326-3.0296c0.45279-1.6663,1.5542-8.6552,2.4477-15.531l1.6244-12.501-1.2889-2.647c-0.70889-1.4558-1.2203-2.9558-1.1364-3.3332l0.15251-0.68623-2.501,0.45352-2.501,0.45351v-1.0892-1.0892l0.94009,0.581,0.9401,0.58102,0.5912-0.95657,0.59119-0.95657-0.85652-0.52937-0.85653-0.52936-4.607,4.7516-4.607,4.7516-0.572,2.0198c-0.3146,1.1109-1.3014,7.699-2.193,14.64l-1.621,12.621,3.1756,2.8374,3.1756,2.8374,1.4348-1.1908,1.4348-1.1908,0.0321,0.88107zm4.0074-3.1585c0-0.27772,0.22722-0.50494,0.50494-0.50494,0.27771,0,0.50494,0.22722,0.50494,0.50494s-0.22723,0.50494-0.50494,0.50494c-0.27772,0-0.50494-0.22722-0.50494-0.50494zm0-38.375c0-0.27772,0.22722-0.50494,0.50494-0.50494,0.27771,0,0.50494,0.22722,0.50494,0.50494s-0.22723,0.50494-0.50494,0.50494c-0.27772,0-0.50494-0.22722-0.50494-0.50494zm-92.433,39.638,2.6081-2.2722,1.8682-15.148c1.0275-8.3315,1.8976-16.192,1.9335-17.468l0.0653-2.3197-2.3596-0.89712-2.3596-0.89712-0.40758-1.2228-0.40759-1.2228-3.7894,3.3272c-2.0842,1.8299-4.4022,4.5122-5.1512,5.9606l-1.3618,2.6334-1.6592,12.617-1.6592,12.617,3.7458,3.2821,3.7458,3.2821h1.2903c0.70963,0,2.4639-1.0225,3.8984-2.2722zm92.433,1.7673c0-0.27771-0.22723-0.50494-0.50494-0.50494-0.27772,0-0.50494,0.22723-0.50494,0.50494,0,0.27772,0.22722,0.50494,0.50494,0.50494,0.27771,0,0.50494-0.22722,0.50494-0.50494zm-100.28-39.079,3.3302-3.2277,0-1.3167,0-1.3167-0.8921,0-0.8921,0-0.52817-2.0198-0.52818-2.0198-19.678,0-19.678,0-0.67033,2.6708-0.67032,2.6708-1.156-1.156c-0.63577-0.63577-1.5374-1.156-2.0037-1.156h-0.84771l1.3022,1.5698c0.7162,0.86338,2.7943,3.1356,4.6179,5.0494l3.3158,3.4796h15.824,15.824l3.3302-3.2278zm-36.56-0.801c-0.34328-0.55544-0.39692-1.0099-0.1192-1.0099s0.7858,0.45445,1.1291,1.0099c0.34328,0.55544,0.39691,1.0099,0.11919,1.0099-0.27771,0-0.78579-0.45445-1.1291-1.0099zm78.771-2.0198c-0.34328-0.55544-0.82455-1.0099-1.0695-1.0099-0.24494,0-0.44534,0.45445-0.44534,1.0099v1.0099h1.0695,1.0695l-0.62413-1.0099zm-30.801-0.50494c0-0.27772-0.22722-0.50494-0.50494-0.50494-0.27771,0-0.50494,0.22722-0.50494,0.50494s0.22723,0.50494,0.50494,0.50494c0.27772,0,0.50494-0.22722,0.50494-0.50494zm-6.0593-3.0296c0-0.27772-0.22723-0.50494-0.50495-0.50494-0.27771,0-0.50494,0.22722-0.50494,0.50494s0.22723,0.50494,0.50494,0.50494c0.27772,0,0.50495-0.22722,0.50495-0.50494zm-2.02-1.009c0-0.27772-0.22722-0.50494-0.50494-0.50494s-0.50494,0.22722-0.50494,0.50494,0.22722,0.50494,0.50494,0.50494,0.50494-0.22722,0.50494-0.50494z"/>
 <path fill="#9c6421" d="m0.0000019308,135.32,0-135.32,255.5,0,255.5,0,0,135.32,0,135.32-255.5,0-255.5,0,0-135.32zm231.69,47.87l1.5974-0.61299v-1.2646-1.2646l-4.1254-4.6866-4.1254-4.6866h-17.878-17.878l-4.9645,5.0403-4.9645,5.0403,1.9728,1.4918,1.9728,1.4918,23.397,0.0321,23.397,0.0321,1.5974-0.61299zm101.11-3.7451c0.72919-2.0199,4.5035-34.623,4.5035-38.902v-4.0251l-3.1028-2.6108-3.1028-2.6108-1.8674,0.99943c-1.0271,0.54968-3.4219,2.4794-5.3217,4.2884l-3.4542,3.289-1.6894,14.643c-0.9292,8.0538-1.6826,15.577-1.6743,16.717l0.0152,2.0741,3.2821,3.0751c1.8052,1.6913,4.3749,3.8039,5.7105,4.6946l2.4284,1.6194,1.9207-1.0279c1.0564-0.56535,2.115-1.5662,2.3525-2.2242zm-148.6-7.0621,4.354-4.233,1.2456-14.138c0.68509-7.7761,1.4118-14.689,1.6148-15.362l0.36922-1.2235-4.1747-3.5734-4.1747-3.5734h-1.6815-1.6815l-1.6243,1.7948-1.6243,1.7948-2.0668,15.491c-1.1367,8.5199-2.0668,17.609-2.0668,20.198v4.7072l1.5746,2.248,1.5746,2.248,2.0038-1.0724c1.1021-0.58985,3.9632-2.9773,6.3579-5.3054zm138.78-37.638,4.2213-3.6133,0-1.1356c0-0.62456-1.4525-2.6342-3.2278-4.4658l-3.2277-3.3302h-18.838-18.838l-4.0902,2.9629c-2.2496,1.6296-4.4411,3.5307-4.87,4.2246l-0.77977,1.2617,4.3434,3.8544,4.3434,3.8544h18.371,18.371l4.2213-3.6133zm-91.658-2.615,3.9803-3.1987,0-1.0452c0-0.57489-1.4525-2.5438-3.2278-4.3754l-3.2278-3.3302h-17.02-17.02l-2.727,1.4189c-1.4999,0.78038-3.8631,2.6432-5.2517,4.1396l-2.5247,2.7208,3.9553,3.4345,3.9553,3.4345h17.564,17.564l3.9803-3.1987zm103.26-5.9166c3.3356-2.6238,3.3092-2.5217,5.7248-22.133,2.4526-19.912,2.4333-17.479,0.15949-20.101l-1.8857-2.1743h-1.6459-1.6459l-3.9244,3.5455-3.9244,3.5455-1.0941,2.7663c-1.1716,2.9624-4.1913,22.412-4.1913,26.997v2.7638l3.7319,3.4183c4.3505,3.9849,5.2032,4.1194,8.6957,1.3722zm-57.491-1.9082c2.3538-1.6194,4.8092-3.5826,5.4565-4.3626l1.177-1.4182,1.6375-13.431,1.6375-13.431-4.8923-5.0044c-2.6908-2.7524-5.672-5.4323-6.6249-5.9553l-1.7326-0.95093-1.4882,2.878-1.4882,2.8779-1.5433,13.55c-0.84883,7.4523-1.6406,15.662-1.7595,18.244l-0.21619,4.6943,1.7215,2.6273,1.7215,2.6273h1.0571c0.58141,0,2.9829-1.325,5.3367-2.9444zm-34.416-0.45031,2.8253-2.3122,1.4323-9.5176c0.78778-5.2347,1.7318-13.196,2.0978-17.692l0.66549-8.1745-1.7571-2.6817-1.7571-2.6817h-1.1807-1.1807l-5.1482,5.3019-5.1482,5.3019-1.7404,13.482-1.7403,13.482,3.8458,3.9385c2.1152,2.1662,4.3217,3.9222,4.9032,3.9022,0.58157-0.02,2.3288-1.0768,3.8827-2.3485zm-8.4253-36.748c1.2861-1.5274,3.5266-4.0625,4.9791-5.6334l2.6408-2.8563-2.3841-1.9407-2.3841-1.9407h-21.03-21.03l-2.5904,0.98489-2.5904,0.98489v1.1886,1.1886l5.4007,5.4007,5.4007,5.4007h15.625,15.625l2.3383-2.7772z"/>
 <path fill="#532203" d="m0.0000019308,135.32,0-135.32,255.5,0,255.5,0,0,135.32,0,135.32-255.5,0-255.5,0,0-135.32zm232.53,48l1.7673-0.7481-0.0104-1.1543c-0.006-0.63487-2.2831-3.5402-5.0609-6.4562l-5.0505-5.3019h-17.523-17.523l-4.6827,5.0061-4.6827,5.0061v1.5388,1.5388l2.2722,0.50403c5.1839,1.1499,10.308,1.3413,29.034,1.0846l19.693-0.27001,1.7673-0.74809zm98.92-1.9026,1.7192-1.3064,1.9905-16.082c1.0948-8.8451,2.2763-18.623,2.6255-21.729l0.635-5.6468-3.6521-2.7856-3.6521-2.7856-1.8794,0.49147-1.8794,0.49147,0.54236-1.4134,0.54237-1.4134-1.3579-1.7544-1.3579-1.7544,2.2406,1.9109,2.2406,1.9109,4.0538-2.6827,4.0538-2.6827,0.0197-1.248c0.0108-0.6864,0.64906-6.0197,1.4183-11.852,0.7692-5.8321,1.718-14.077,2.1085-18.322l0.70999-7.7181-2.1282-2.1282c-1.1705-1.1705-2.6022-2.1282-3.1814-2.1282-0.57923,0-3.315,2.1157-6.0795,4.7015l-5.0263,4.7015-0.51278,2.1152c-0.28203,1.1633-1.3611,8.023-2.3979,15.244l-1.8851,13.128,1.6606,1.95,1.6606,1.95-2.4969-1.6975-2.4969-1.6975h-17.934-17.934l0.56227-4.7969c0.30925-2.6383,0.98223-8.1246,1.4955-12.192,0.51327-4.0671,0.93323-8.7094,0.93323-10.316v-2.9214l-3.1477-3.585c-1.7312-1.9718-4.4967-4.5456-6.1455-5.7197l-2.9979-2.1347-1.5392,1.5392-1.5392,1.5392-0.85389,4.5707c-0.46965,2.5139-1.5546,11.242-2.4111,19.395l-1.5572,14.825,1.7295,2.9279,1.7296,2.9279h2.0943,2.0943l-0.0398,2.6447-0.0398,2.6447,3.5346,2.8759,3.5346,2.8759,19.44,0.11361,19.44,0.11361v1.3832c0,0.76077-0.66485,6.519-1.4774,12.796-0.81258,6.2771-1.5871,13.413-1.7212,15.857l-0.2438,4.4439,5.3263,4.8975,5.3262,4.8975,1.1919-0.0321c0.65555-0.0177,1.9655-0.61999,2.9111-1.3385zm-148.27-7.6976,5.3171-5.0287,1.726-15.71,1.726-15.71-3.2319-2.7409c-1.7776-1.5075-4.054-3.3268-5.0587-4.043l-1.8268-1.302-2.4465,1.603-2.4465,1.603-0.58835,3.2336c-0.32358,1.7785-1.502,10.672-2.6187,19.764l-2.0304,16.53,1.6206,3.4151,1.6206,3.4151h1.4602,1.4602l5.3171-5.0287zm49.424-42.091,3.8041-3.6949-0.44675-1.1642-0.44674-1.1642,2.6725,0.36813,2.6725,0.36812,2.6265-2.4793,2.6265-2.4793,0.72547-5.9056c0.39902-3.2481,1.345-11.114,2.1023-17.479l1.3768-11.573-1.6644-2.8176-1.6644-2.8176h-1.8771-1.8771l-4.9163,4.7969-4.9163,4.7969-1.6654,13.477-1.6654,13.477,0.43813,1.6708,0.43812,1.6708-18.776-0.24296-18.776-0.24297-4.0344,2.813-4.0344,2.813-0.36791,1.9104-0.36792,1.9104,3.3924,2.814,3.3925,2.814,18.712,0.0272,18.712,0.0272,3.8041-3.6949zm4.5745-47.244c2.8577-3.0216,5.1959-5.7367,5.1959-6.0334s-1.3408-1.2328-2.9795-2.0802l-2.9795-1.5408h-22.075-22.075l-1.8061,1.3206-1.806,1.3206,2.8754,3.4438c1.5815,1.8941,4.2387,4.6948,5.905,6.2239l3.0296,2.7801,15.759,0.02959,15.759,0.02959,5.1959-5.4939z"/>
 <path fill="#000" d="m0.0000019308,135.32,0-135.32,255.5,0,255.5,0,0,135.32,0,135.32-255.5,0-255.5,0,0-135.32zm232.34,48.44l1.9534-1.0454v-1.6971-1.6971l-4.759-4.8316-4.759-4.8316h-17.458-17.458v-4.5843c0-6.9019,1.958-23.855,3.0863-26.722l0.99352-2.5247,17.645-0.0689,17.645-0.0689,2.3454-2.2034c1.29-1.2118,2.8349-2.2034,3.4332-2.2034h1.0878l0.64403-2.566,0.64402-2.566,0.95175,0.58821,0.95176,0.58822,2.8057-1.7561c1.5431-0.96585,2.9597-1.8582,3.1478-1.9831,0.30684-0.20358,1.6584-5.5766,2.7639-10.988,0.22695-1.1109,0.86812-7.6214,1.4248-14.468l1.0122-12.448-1.0274-1.9197c-0.56505-1.0558-1.9352-2.4055-3.0449-2.9994l-2.0175-1.0797-0.98901,0.61124-0.98901,0.61124v-1.9173-1.9173l-2.5722-1.172-2.5722-1.172-22.927,0.01545-22.927,0.01545-1.3704,0.86834-1.3704,0.86834,0.61297,1.9313,0.61296,1.9313,4.797,4.6547,4.797,4.6547,15.529,0.53578,15.529,0.53578,1.0647,1.0647,1.0647,1.0647-1.2658,12.39-1.2658,12.39-0.72432,0.74636-0.7243,0.74634-17.878,0.38742-17.878,0.38742-4.6083,3.7761-4.6083,3.7761,0.58535,0.58535,0.58535,0.58535-3.2953,1.069-3.2953,1.069-1.1707,2.5247-1.1707,2.5247-2.209,18.014-2.209,18.014,1.2043,2.9074c0.66236,1.5991,1.808,3.4085,2.5459,4.0209l1.3416,1.1134,2.3368-1.2453,2.3368-1.2453-1.4821,1.7959-1.4821,1.7959,2.3514,1.904,2.3514,1.904h23.687,23.687l1.9534-1.0454zm100.63-4.1678,1.2268-2.4877,2.2186-20.074,2.2186-20.074-3.7214-3.2168-3.7214-3.2169,3.7349-3.2793,3.7349-3.2792,1.781-15.276c0.97951-8.402,2.0803-16.69,2.4461-18.419l0.66516-3.1422-1.639-3.1695-1.639-3.1695h-2.2808-2.2808l-5.1926,5.3019-5.1926,5.3019-1.6166,11.614c-0.88912,6.3875-1.8403,12.636-2.1138,13.886l-0.4972,2.2722h-15.477-15.477l-1.7797-1.9666-1.7797-1.9666,0.15189-12.537,0.1519-12.537-5.1319-4.9182c-2.8225-2.705-5.747-5.2624-6.4987-5.6831l-1.3668-0.76491-1.4542,2.2614-1.4543,2.2614-1.6264,10.604c-0.89455,5.8321-1.9078,14.729-2.2516,19.772l-0.62518,9.168,3.0402,3.2545c1.6721,1.79,3.3085,4.0999,3.6364,5.1332l0.59628,1.8787,3.7474,2.8668,3.7475,2.8668,14.266-0.36015,14.266-0.36014,3.2204,0.70731,3.2204,0.70732-0.31829,16.079-0.31827,16.079,6.0473,5.9219,6.0473,5.9219,2.0318-0.73631,2.0318-0.73629,1.2268-2.4877z"/>
</svg>